HIERARCHY
ROOT Hips
{
  OFFSET -375.396 93.0049 534.666
  CHANNELS 6 Xposition Yposition Zposition Zrotation Xrotation Yrotation
  JOINT Spine
  {
    OFFSET 0 8 -1.7052e-05
    CHANNELS 6 Xposition Yposition Zposition Zrotation Xrotation Yrotation
    JOINT Spine1
    {
      OFFSET 0 8.00001 0
      CHANNELS 6 Xposition Yposition Zposition Zrotation Xrotation Yrotation
      JOINT Spine2
      {
        OFFSET 0 8 4.65747e-05
        CHANNELS 6 Xposition Yposition Zposition Zrotation Xrotation Yrotation
        JOINT Spine3
        {
          OFFSET 0 8 0
          CHANNELS 6 Xposition Yposition Zposition Zrotation Xrotation Yrotation
          JOINT Neck
          {
            OFFSET -0.000149348 17 4.56811e-05
            CHANNELS 6 Xposition Yposition Zposition Zrotation Xrotation Yrotation
            JOINT Head
            {
              OFFSET 1.50884e-05 10.8 1.45785e-05
              CHANNELS 6 Xposition Yposition Zposition Zrotation Xrotation Yrotation
              End Site
              {
                OFFSET 0 20.25 0
              }
            }
          }
          JOINT LeftShoulder
          {
            OFFSET 4.99988 17 7.67672e-05
            CHANNELS 6 Xposition Yposition Zposition Zrotation Xrotation Yrotation
            JOINT LeftShoulder2
            {
              OFFSET 6.45 0 0
              CHANNELS 6 Xposition Yposition Zposition Zrotation Xrotation Yrotation
              JOINT LeftArm
              {
                OFFSET 6.44995 0.000825099 0.00161695
                CHANNELS 6 Xposition Yposition Zposition Zrotation Xrotation Yrotation
                JOINT LeftForeArm
                {
                  OFFSET -1.48273e-05 -32.4 -1.99996
                  CHANNELS 6 Xposition Yposition Zposition Zrotation Xrotation Yrotation
                  JOINT LeftHand
                  {
                    OFFSET -2.47442e-05 -25.65 1.99996
                    CHANNELS 6 Xposition Yposition Zposition Zrotation Xrotation Yrotation
                    JOINT LeftHandThumb1
                    {
                      OFFSET -0.499991 -1.49999 2.65
                      CHANNELS 6 Xposition Yposition Zposition Zrotation Xrotation Yrotation
                      JOINT LeftHandThumb2
                      {
                        OFFSET 0 -3.8 3.69999
                        CHANNELS 6 Xposition Yposition Zposition Zrotation Xrotation Yrotation
                        JOINT LeftHandThumb3
                        {
                          OFFSET -1.24672e-05 -3.00002 2.70001
                          CHANNELS 6 Xposition Yposition Zposition Zrotation Xrotation Yrotation
                          End Site
                          {
                            OFFSET 0 -2.3 1.8
                          }
                        }
                      }
                    }
                    JOINT LeftHandIndex
                    {
                      OFFSET 1.22711e-05 -1.90001 1.60001
                      CHANNELS 6 Xposition Yposition Zposition Zrotation Xrotation Yrotation
                      JOINT LeftHandIndex1
                      {
                        OFFSET 0 -8.3 1.90002
                        CHANNELS 6 Xposition Yposition Zposition Zrotation Xrotation Yrotation
                        JOINT LeftHandIndex2
                        {
                          OFFSET 0 -4.5 0
                          CHANNELS 6 Xposition Yposition Zposition Zrotation Xrotation Yrotation
                          JOINT LeftHandIndex3
                          {
                            OFFSET -1.46379e-05 -3.39995 -1.74338e-05
                            CHANNELS 6 Xposition Yposition Zposition Zrotation Xrotation Yrotation
                            End Site
                            {
                              OFFSET 1.36703e-05 -2.59998 1.78503e-05
                            }
                          }
                        }
                      }
                    }
                    JOINT LeftHandMiddle
                    {
                      OFFSET -0.249993 -2.20001 0.400024
                      CHANNELS 6 Xposition Yposition Zposition Zrotation Xrotation Yrotation
                      JOINT LeftHandMiddle1
                      {
                        OFFSET 0 -8.29999 0.999976
                        CHANNELS 6 Xposition Yposition Zposition Zrotation Xrotation Yrotation
                        JOINT LeftHandMiddle2
                        {
                          OFFSET 0 -4.64999 1.29898e-05
                          CHANNELS 6 Xposition Yposition Zposition Zrotation Xrotation Yrotation
                          JOINT LeftHandMiddle3
                          {
                            OFFSET 0 -3.30002 -1.91875e-05
                            CHANNELS 6 Xposition Yposition Zposition Zrotation Xrotation Yrotation
                            End Site
                            {
                              OFFSET 0 -2.69999 0
                            }
                          }
                        }
                      }
                    }
                    JOINT LeftHandRing
                    {
                      OFFSET -0.499986 -2.15001 -0.799999
                      CHANNELS 6 Xposition Yposition Zposition Zrotation Xrotation Yrotation
                      JOINT LeftHandRing1
                      {
                        OFFSET 0 -7.75001 -0.200043
                        CHANNELS 6 Xposition Yposition Zposition Zrotation Xrotation Yrotation
                        JOINT LeftHandRing2
                        {
                          OFFSET 0 -3.79998 5.46468e-05
                          CHANNELS 6 Xposition Yposition Zposition Zrotation Xrotation Yrotation
                          JOINT LeftHandRing3
                          {
                            OFFSET 0 -3.40001 -4.10966e-05
                            CHANNELS 6 Xposition Yposition Zposition Zrotation Xrotation Yrotation
                            End Site
                            {
                              OFFSET -1.05278e-05 -2.59999 1.15451e-05
                            }
                          }
                        }
                      }
                    }
                    JOINT LeftHandPinky
                    {
                      OFFSET -0.749985 -1.75001 -1.85001
                      CHANNELS 6 Xposition Yposition Zposition Zrotation Xrotation Yrotation
                      JOINT LeftHandPinky1
                      {
                        OFFSET 0 -7.14999 -0.999996
                        CHANNELS 6 Xposition Yposition Zposition Zrotation Xrotation Yrotation
                        JOINT LeftHandPinky2
                        {
                          OFFSET 1.45672e-05 -3.00002 -2.97348e-05
                          CHANNELS 6 Xposition Yposition Zposition Zrotation Xrotation Yrotation
                          JOINT LeftHandPinky3
                          {
                            OFFSET -1.22523e-05 -2.34998 1.75191e-05
                            CHANNELS 6 Xposition Yposition Zposition Zrotation Xrotation Yrotation
                            End Site
                            {
                              OFFSET 0 -2.1 2.73622e-05
                            }
                          }
                        }
                      }
                    }
                  }
                }
              }
            }
          }
          JOINT RightShoulder
          {
            OFFSET -5.00018 17 1.54942e-05
            CHANNELS 6 Xposition Yposition Zposition Zrotation Xrotation Yrotation
            JOINT RightShoulder2
            {
              OFFSET -6.45 0 0
              CHANNELS 6 Xposition Yposition Zposition Zrotation Xrotation Yrotation
              JOINT RightArm
              {
                OFFSET -6.44992 -0.000462565 0.000274686
                CHANNELS 6 Xposition Yposition Zposition Zrotation Xrotation Yrotation
                JOINT RightForeArm
                {
                  OFFSET 0 -32.4001 -1.99999
                  CHANNELS 6 Xposition Yposition Zposition Zrotation Xrotation Yrotation
                  JOINT RightHand
                  {
                    OFFSET -2.19987e-05 -25.65 2.00002
                    CHANNELS 6 Xposition Yposition Zposition Zrotation Xrotation Yrotation
                    JOINT RightHandThumb1
                    {
                      OFFSET 0.500004 -1.5 2.65002
                      CHANNELS 6 Xposition Yposition Zposition Zrotation Xrotation Yrotation
                      JOINT RightHandThumb2
                      {
                        OFFSET 0 -3.79998 3.70007
                        CHANNELS 6 Xposition Yposition Zposition Zrotation Xrotation Yrotation
                        JOINT RightHandThumb3
                        {
                          OFFSET 0 -3 2.7
                          CHANNELS 6 Xposition Yposition Zposition Zrotation Xrotation Yrotation
                          End Site
                          {
                            OFFSET 0 -2.30001 1.80001
                          }
                        }
                      }
                    }
                    JOINT RightHandIndex
                    {
                      OFFSET 0 -1.9 1.60002
                      CHANNELS 6 Xposition Yposition Zposition Zrotation Xrotation Yrotation
                      JOINT RightHandIndex1
                      {
                        OFFSET -1.06409e-05 -8.30001 1.90004
                        CHANNELS 6 Xposition Yposition Zposition Zrotation Xrotation Yrotation
                        JOINT RightHandIndex2
                        {
                          OFFSET 0 -4.5 0
                          CHANNELS 6 Xposition Yposition Zposition Zrotation Xrotation Yrotation
                          JOINT RightHandIndex3
                          {
                            OFFSET 3.07905e-05 -3.39999 -2.63762e-05
                            CHANNELS 6 Xposition Yposition Zposition Zrotation Xrotation Yrotation
                            End Site
                            {
                              OFFSET -2.11528e-05 -2.60001 0
                            }
                          }
                        }
                      }
                    }
                    JOINT RightHandMiddle
                    {
                      OFFSET 0.249992 -2.2 0.400048
                      CHANNELS 6 Xposition Yposition Zposition Zrotation Xrotation Yrotation
                      JOINT RightHandMiddle1
                      {
                        OFFSET -1.0766e-05 -8.30001 1.00002
                        CHANNELS 6 Xposition Yposition Zposition Zrotation Xrotation Yrotation
                        JOINT RightHandMiddle2
                        {
                          OFFSET 1.61111e-05 -4.64997 0
                          CHANNELS 6 Xposition Yposition Zposition Zrotation Xrotation Yrotation
                          JOINT RightHandMiddle3
                          {
                            OFFSET -2.62671e-05 -3.30001 -3.44967e-05
                            CHANNELS 6 Xposition Yposition Zposition Zrotation Xrotation Yrotation
                            End Site
                            {
                              OFFSET 0 -2.70001 0
                            }
                          }
                        }
                      }
                    }
                    JOINT RightHandRing
                    {
                      OFFSET 0.499996 -2.15 -0.799976
                      CHANNELS 6 Xposition Yposition Zposition Zrotation Xrotation Yrotation
                      JOINT RightHandRing1
                      {
                        OFFSET 0 -7.74999 -0.199974
                        CHANNELS 6 Xposition Yposition Zposition Zrotation Xrotation Yrotation
                        JOINT RightHandRing2
                        {
                          OFFSET 1.03523e-05 -3.8 -2.58797e-05
                          CHANNELS 6 Xposition Yposition Zposition Zrotation Xrotation Yrotation
                          JOINT RightHandRing3
                          {
                            OFFSET 0 -3.39998 0
                            CHANNELS 6 Xposition Yposition Zposition Zrotation Xrotation Yrotation
                            End Site
                            {
                              OFFSET 0 -2.60002 0
                            }
                          }
                        }
                      }
                    }
                    JOINT RightHandPinky
                    {
                      OFFSET 0.749984 -1.74999 -1.84996
                      CHANNELS 6 Xposition Yposition Zposition Zrotation Xrotation Yrotation
                      JOINT RightHandPinky1
                      {
                        OFFSET 1.4974e-05 -7.15002 -1
                        CHANNELS 6 Xposition Yposition Zposition Zrotation Xrotation Yrotation
                        JOINT RightHandPinky2
                        {
                          OFFSET -1.35452e-05 -2.99999 1.6575e-05
                          CHANNELS 6 Xposition Yposition Zposition Zrotation Xrotation Yrotation
                          JOINT RightHandPinky3
                          {
                            OFFSET 0 -2.35001 -2.94329e-05
                            CHANNELS 6 Xposition Yposition Zposition Zrotation Xrotation Yrotation
                            End Site
                            {
                              OFFSET 0 -2.1 1.4282e-05
                            }
                          }
                        }
                      }
                    }
                  }
                }
              }
            }
          }
        }
      }
    }
  }
  JOINT LeftUpLeg
  {
    OFFSET 8.00001 0 1.07707e-05
    CHANNELS 6 Xposition Yposition Zposition Zrotation Xrotation Yrotation
    JOINT LeftLeg
    {
      OFFSET 0 -45 -0.999944
      CHANNELS 6 Xposition Yposition Zposition Zrotation Xrotation Yrotation
      JOINT LeftFoot
      {
        OFFSET -1.5034e-05 -41 -2.00002
        CHANNELS 6 Xposition Yposition Zposition Zrotation Xrotation Yrotation
        JOINT LeftToeBase
        {
          OFFSET 0 -7.49998 12.5
          CHANNELS 6 Xposition Yposition Zposition Zrotation Xrotation Yrotation
          JOINT LeftFootToe
          {
            OFFSET 0 0 4
            CHANNELS 6 Xposition Yposition Zposition Zrotation Xrotation Yrotation
            End Site
            {
              OFFSET 0 0 0
            }
          }
        }
      }
    }
  }
  JOINT RightUpLeg
  {
    OFFSET -8.00001 0 -1.07707e-05
    CHANNELS 6 Xposition Yposition Zposition Zrotation Xrotation Yrotation
    JOINT RightLeg
    {
      OFFSET 0 -45 -0.999987
      CHANNELS 6 Xposition Yposition Zposition Zrotation Xrotation Yrotation
      JOINT RightFoot
      {
        OFFSET -2.5213e-05 -41.0001 -2.00004
        CHANNELS 6 Xposition Yposition Zposition Zrotation Xrotation Yrotation
        JOINT RightToeBase
        {
          OFFSET -1.32692e-05 -7.5 12.5
          CHANNELS 6 Xposition Yposition Zposition Zrotation Xrotation Yrotation
          JOINT RightFootToe
          {
            OFFSET 0 0 4
            CHANNELS 6 Xposition Yposition Zposition Zrotation Xrotation Yrotation
            End Site
            {
              OFFSET 0 0 0
            }
          }
        }
      }
    }
  }
}
MOTION
Frames:	3
Frame Time:	0.0111111
-347.793 92.5306 516.522 0.58427 0.130807 -109.652 0 8 5.68434e-14 -3.58556 8.895 8.41309 0 8 -5.68434e-14 0.949595 1.72908 13.1434 5.68434e-14 8 -5.68434e-14 -1.49686 -3.26929 -55.1865 0 8 -2.84217e-14 0.522844 0.834651 6.55293 0 17 2.84217e-14 -1.20936 2.67152 -3.56134 0 10.8 2.84217e-14 -4.8314 1.35665 -8.43642 5 17 2.84217e-14 -19.6542 -1.28124 4.29932 6.45 0 2.84217e-14 -0.909333 -1.39202 2.64664 6.45 0 0 5.59987 -32.1714 1.39737 0 -32.4 -2 -42.9713 -29.0052 18.3276 -4.26326e-14 -25.65 2 13.3918 50.6069 26.1572 -0.5 -1.5 2.65 -23.2601 -37.011 -25.5622 0 -3.8 3.7 -0.168934 12.948 0.02317 -2.84217e-14 -3 2.7 -0.0299259 23.5983 0.0215287 5.68434e-14 -1.9 1.6 -8.82781e-32 -3.18055e-15 -1.59028e-15 -8.52651e-14 -8.3 1.9 -12.6522 26.244 3.41958 0 -4.5 -5.68434e-14 -0.444913 -0.0148691 -0.00976064 0 -3.4 -2.84217e-14 -0.427024 -0.0135699 -0.00351582 -0.25 -2.2 0.4 -8.82781e-32 -3.18055e-15 -1.59028e-15 -2.84217e-14 -8.3 1 -25.9249 27.1383 7.67091 5.68434e-14 -4.65 -2.84217e-14 -1.86465 -0.00818162 -0.0248786 2.84217e-14 -3.3 -2.84217e-14 -1.76838 0.0130667 -0.0255748 -0.5 -2.15 -0.8 -8.82781e-32 -3.18055e-15 -1.59028e-15 5.68434e-14 -7.75 -0.2 -36.483 10.6581 5.246 2.84217e-14 -3.8 -2.84217e-14 4.93937e-06 1.87614e-05 2.05914e-06 5.68434e-14 -3.4 0 1.33167e-05 2.85853e-06 -1.98851e-05 -0.75 -1.75 -1.85 -8.82781e-32 -3.18055e-15 -1.59028e-15 5.68434e-14 -7.15 -1 -32.0451 20.2416 7.77113 0 -3 0 -3.00061 0.00375902 -0.0196427 5.68434e-14 -2.35 -2.84217e-14 -2.74548 0.0019649 -0.0176375 -5 17 2.84217e-14 -13.5661 2.89051 0.776374 -6.45 0 -2.84217e-14 -2.01684 0.981861 -2.33076 -6.45 0 8.52651e-14 -49.5763 9.72746 -15.8363 7.10543e-15 -32.4 -2 76.1612 -55.4996 69.7216 2.84217e-14 -25.65 2 -12.7539 -15.0741 9.38042 0.5 -1.5 2.65 15.025 -18.7137 -1.23226 2.84217e-14 -3.8 3.7 0.170727 20.9898 -0.128911 5.68434e-14 -3 2.7 0.096418 12.0038 -0.15347 5.68434e-14 -1.9 1.6 1.25701e-06 1.83145e-07 -1.46836e-06 -5.68434e-14 -8.3 1.9 21.883 -3.84938 0.382223 5.68434e-14 -4.5 2.27374e-13 16.5361 0.00762985 -0.128074 -8.52651e-14 -3.4 0 13.5129 -0.0124282 -0.0857124 0.25 -2.2 0.4 1.25701e-06 1.83145e-07 -1.46836e-06 2.84217e-14 -8.3 1 22.0287 1.73211 -0.913743 0 -4.65 -1.13687e-13 22.0729 0.188296 0.258755 -5.68434e-14 -3.3 0 17.1717 0.161639 0.117453 0.5 -2.15 -0.8 1.25701e-06 1.83145e-07 -1.46836e-06 -1.42109e-14 -7.75 -0.2 33.4544 4.33375 -3.0028 0 -3.8 0 8.38007 0.142349 0.300279 -5.68434e-14 -3.4 0 7.35925 0.143749 0.220787 0.75 -1.75 -1.85 1.25701e-06 1.83145e-07 -1.46836e-06 -4.26326e-14 -7.15 -1 41.6143 0.503835 -3.01878 8.52651e-14 -3 0 31.7518 0.590965 0.38282 0 -2.35 0 23.123 0.418361 0.068006 8 2.84217e-14 2.84217e-14 -3.5656 -16.689 -7.19807 0 -45 -1 0.110593 2.10944 2.9687 0 -41 -2 2.46625 14.1054 -3.58982 0 -7.5 12.5 -9.3234e-09 -1.06998e-06 -2.56757e-10 0 4.44089e-16 4 -8.92091 -7.115 32.5474 -8 0 -5.68434e-14 -11.2885 -26.3718 -17.2917 1.13687e-13 -45 -1 -0.902756 48.0136 2.64366 0 -41 -2 -0.767675 -3.5017 21.0085 0 -7.5 12.5 -7.95139e-16 -1.98785e-15 3.18055e-15 0 0 4 -7.61375 0.047155 14.0447 
-348.623 92.4841 516.423 0.541167 0.151863 -109.133 0 8 -2.84217e-14 -3.57727 9.10161 8.15921 0 8 0 0.962088 1.9617 13.0455 0 8 -5.68434e-14 -1.48755 -3.15085 -55.2311 0 8 0 0.534762 0.947822 6.50391 0 17 5.68434e-14 -1.35533 2.17652 -3.57338 0 10.8 0 -4.85222 1.01186 -8.45339 5 17 0 -19.8121 -1.45784 4.00977 6.45 0 -2.84217e-14 -0.909595 -1.39353 2.61435 6.45 -5.68434e-14 -5.68434e-14 5.8313 -32.1464 1.85774 0 -32.4 -2 -42.2858 -28.8531 18.5037 -1.42109e-14 -25.65 2 12.6555 50.4822 26.0856 -0.5 -1.5 2.65 -23.508 -37.4722 -25.4974 0 -3.8 3.7 -0.165963 13.0589 0.0263837 1.42109e-14 -3 2.7 -0.0268168 23.7616 0.0266685 0 -1.9 1.6 -3.18055e-15 0 -3.18055e-15 0 -8.3 1.9 -11.8627 25.6441 3.14875 -5.68434e-14 -4.5 2.84217e-14 -1.21746 -0.0148691 -0.0171871 -2.84217e-14 -3.4 2.84217e-14 -1.13569 -0.0135699 -0.00351582 -0.25 -2.2 0.4 -3.18055e-15 0 -3.18055e-15 -5.68434e-14 -8.3 1 -24.9674 26.6966 7.28158 0 -4.65 -5.68434e-14 -2.61069 -0.00818162 -0.0248786 0 -3.3 2.84217e-14 -2.45938 0.0111329 -0.0242122 -0.5 -2.15 -0.8 -3.18055e-15 0 -3.18055e-15 -5.68434e-14 -7.75 -0.2 -35.9644 11.0734 5.31898 -5.68434e-14 -3.8 2.84217e-14 4.93937e-06 1.87614e-05 2.05914e-06 5.68434e-14 -3.4 2.84217e-14 1.33167e-05 2.85853e-06 -1.98851e-05 -0.75 -1.75 -1.85 -3.18055e-15 0 -3.18055e-15 1.13687e-13 -7.15 -1 -32.5219 20.3196 7.92884 5.68434e-14 -3 -5.68434e-14 -2.23378 0.00375902 -0.0112965 2.84217e-14 -2.35 0 -2.06412 0.0019649 -0.0101003 -5 17 -2.84217e-14 -13.6564 2.5398 0.479538 -6.45 5.68434e-14 0 -2.00797 0.972731 -2.32161 -6.45 -5.68434e-14 -2.84217e-14 -51.0942 10.0157 -15.4406 0 -32.4 -2 78.0288 -54.8734 71.7021 0 -25.65 2 -12.8682 -14.05 10.1588 0.5 -1.5 2.65 15.8915 -18.8361 -0.214226 5.68434e-14 -3.8 3.7 -0.00830588 21.7882 -0.0406445 0 -3 2.7 0.0308187 11.2483 -0.100606 5.68434e-14 -1.9 1.6 1.25701e-06 1.83145e-07 -1.46836e-06 -4.26326e-14 -8.3 1.9 24.046 -2.30023 0.0614503 5.68434e-14 -4.5 0 17.8091 0.0666692 -0.244455 -2.84217e-14 -3.4 1.13687e-13 14.3273 0.00169259 -0.17091 0.25 -2.2 0.4 1.25701e-06 1.83145e-07 -1.46836e-06 -4.26326e-14 -8.3 1 23.6776 3.99596 -1.53807 2.84217e-14 -4.65 -1.13687e-13 21.8672 0.147425 0.125803 -5.68434e-14 -3.3 0 17.0487 0.112188 0.0457003 0.5 -2.15 -0.8 1.25701e-06 1.83145e-07 -1.46836e-06 -5.68434e-14 -7.75 -0.2 36.3885 5.76069 -3.8012 2.84217e-14 -3.8 0 7.27031 0.0928334 0.187951 -2.84217e-14 -3.4 0 6.48673 0.0935812 0.137617 0.75 -1.75 -1.85 1.25701e-06 1.83145e-07 -1.46836e-06 -2.84217e-14 -7.15 -1 45.4537 0.501268 -3.34676 -2.84217e-14 -3 0 28.1255 0.377064 0.361067 5.68434e-14 -2.35 0 20.8771 0.289047 0.113005 8 2.84217e-14 0 -3.81338 -16.1416 -7.42108 0 -45 -1 0.113214 2.12112 3.11043 1.13687e-13 -41 -2 2.67491 13.5393 -4.00027 0 -7.5 12.5 -9.3234e-09 -1.06998e-06 -2.56757e-10 0 0 4 -9.21752 -6.7345 32.4993 -8 1.42109e-14 -2.84217e-14 -10.605 -26.5868 -16.7988 0 -45 -1 -0.717781 45.0277 2.43188 0 -41 -2 -0.604267 -3.48752 22.0649 0 -7.5 12.5 -7.95139e-16 -2.88238e-15 1.59028e-15 0 7.10543e-15 4 -6.51687 -0.0144163 14.0497 
-349.453 92.4377 516.324 0.497658 0.171633 -108.614 0 8 -2.84217e-14 -3.56715 9.30829 7.90515 0 8 -2.84217e-14 0.975376 2.19449 12.9477 5.68434e-14 8 0 -1.47806 -3.03269 -55.2761 0 8 2.84217e-14 0.547171 1.06413 6.45876 -1.13687e-13 17 -2.84217e-14 -1.50151 1.68154 -3.58568 0 10.8 8.52651e-14 -4.87324 0.667093 -8.47066 5 17 -5.68434e-14 -19.9717 -1.63452 3.7202 6.45 -5.68434e-14 5.68434e-14 -0.910422 -1.39481 2.58123 6.45 -5.68434e-14 -5.68434e-14 6.06229 -32.1198 2.31785 0 -32.4 -2 -41.6013 -28.701 18.6793 -4.26326e-14 -25.65 2 11.9188 50.3575 26.0145 -0.5 -1.5 2.65 -23.7548 -37.9339 -25.4335 0 -3.8 3.7 -0.163005 13.1697 0.0296003 -1.42109e-14 -3 2.7 -0.0237398 23.9248 0.0318214 5.68434e-14 -1.9 1.6 -3.53113e-31 -6.36111e-15 -3.18055e-15 -5.68434e-14 -8.3 1.9 -11.0795 25.0435 2.88097 -2.84217e-14 -4.5 0 -1.99 -0.0148691 -0.0246136 2.84217e-14 -3.4 -2.84217e-14 -1.84436 -0.0135699 -0.00351582 -0.25 -2.2 0.4 -3.53113e-31 -6.36111e-15 -3.18055e-15 0 -8.3 1 -24.0167 26.2533 6.89571 0 -4.65 0 -3.35674 -0.00818162 -0.0248786 2.84217e-14 -3.3 5.68434e-14 -3.15037 0.00919896 -0.0228496 -0.5 -2.15 -0.8 -3.53113e-31 -6.36111e-15 -3.18055e-15 0 -7.75 -0.2 -35.4469 11.4886 5.39246 -2.84217e-14 -3.8 -5.68434e-14 4.93937e-06 1.87614e-05 2.05914e-06 5.68434e-14 -3.4 -2.84217e-14 1.33167e-05 2.85853e-06 -1.98851e-05 -0.75 -1.75 -1.85 -3.53113e-31 -6.36111e-15 -3.18055e-15 5.68434e-14 -7.15 -1 -32.9992 20.3974 8.08671 -5.68434e-14 -3 0 -1.46695 0.00375902 -0.00295031 2.84217e-14 -2.35 2.84217e-14 -1.38275 0.0019649 -0.00256304 -5 17 -2.84217e-14 -13.7502 2.189 0.182881 -6.45 5.68434e-14 2.84217e-14 -1.99814 0.964988 -2.31901 -6.45 0 0 -52.616 10.3044 -15.0446 -1.42109e-14 -32.4 -2 79.8265 -54.2028 73.5953 5.68434e-14 -25.65 2 -13.0107 -13.028 10.9334 0.5 -1.5 2.65 16.7625 -18.9531 0.80526 2.84217e-14 -3.8 3.7 -0.190002 22.5865 0.0486031 0 -3 2.7 -0.0333631 10.4928 -0.0480362 7.10543e-14 -1.9 1.6 1.25701e-06 1.83145e-07 -1.46836e-06 -7.10543e-14 -8.3 1.9 26.2264 -0.750989 -0.258581 5.68434e-14 -4.5 0 19.0823 0.125707 -0.360836 -5.68434e-14 -3.4 0 15.1418 0.0158133 -0.256107 0.25 -2.2 0.4 1.25701e-06 1.83145e-07 -1.46836e-06 1.42109e-14 -8.3 1 25.3761 6.25802 -2.16826 2.84217e-14 -4.65 0 21.6614 0.106554 -0.00714782 -2.84217e-14 -3.3 0 16.9256 0.0627353 -0.0260526 0.5 -2.15 -0.8 1.25701e-06 1.83145e-07 -1.46836e-06 -2.84217e-14 -7.75 -0.2 39.3628 7.18389 -4.60598 -5.68434e-14 -3.8 0 6.16036 0.0433168 0.0756228 0 -3.4 -5.68434e-14 5.61407 0.043413 0.0544472 0.75 -1.75 -1.85 1.25701e-06 1.83145e-07 -1.46836e-06 -4.26326e-14 -7.15 -1 49.2931 0.498687 -3.67474 0 -3 0 24.499 0.163161 0.339319 5.68434e-14 -2.35 1.13687e-13 18.6313 0.159733 0.158004 8 4.26326e-14 5.68434e-14 -4.05676 -15.5945 -7.64354 0 -45 -1 0.115777 2.13279 3.25217 0 -41 -2 2.87528 12.973 -4.40916 0 -7.5 12.5 -9.3234e-09 -1.06998e-06 -2.56753e-10 0 0 4 -9.49095 -6.37322 32.543 -8 0 2.84217e-14 -9.9178 -26.8008 -16.3042 0 -45 -1 -0.562016 42.0412 2.2474 0 -41 -2 -0.440929 -3.472 23.1214 0 -7.5 12.5 -1.19271e-15 -2.88238e-15 1.59028e-15 0 0 4 -5.41962 -0.0519871 14.3585 
